<svg xmlns="http://www.w3.org/2000/svg" width="135" height="200" viewBox="1.5833381414413452 44.49998474121094 129.99966430664062 189.99951171875" stroke="#000" stroke-linecap="round" stroke-linejoin="round" fill="#fff" fill-rule="evenodd" font-family="Roboto" font-size="14" text-anchor="middle"><defs><path id="A" d="M131.5506 171.2788c0 34.9542-29.093 63.2207-64.9834 63.2207S1.5838 206.1647 1.5838 171.2104c0 0-.715-42.4802 54.118-119.3009 0 0 10.2903-15.9411 20.6455-1.045 54.8298 76.8263 55.2357 120.4169 55.2357 120.4169"/></defs><g stroke="none" fill-rule="nonzero"><use href="#A" fill="#ea5a47"/><path d="M66.5673 44.5c41.8329 30.802 64.5776 121.3398 64.5776 121.3398 0 44.5284-28.6872 68.6484-64.5776 68.6484 0 0 71.4818-53.8081 0-189.9882" fill="#d22f27"/></g><use href="#A" fill="none" stroke-width="4.1667" stroke-linejoin="miter" stroke-linecap="butt"/><g stroke="none" fill-rule="nonzero"><path d="M65.4007 199.5l34.2957-8.797-.2388-44.023-34.0837 7.0601-34.3189-7.9057v38.629c-.0804 3.5454 2.2637 6.7024 5.7125 7.6907L65.3457 199.5v-39.3433"/><path d="M65.3747 182.6171l-.4082 16.1625-8.4082-1.1326-25.0211-31.5894v-19.3745l4.6417.4352 29.1958 35.4988m-34.3213-36.7803L65.6711 137l33.2046 9.7277"/><path d="M98.0128 146.2235l-32.903 7.9344-34.0925-8.533"/></g><path d="M65.3456 160.1571v35.1321c.0001 1.0076-.4718 1.9601-1.2794 2.5764s-1.859.8298-2.8468.5767l-24.852-6.3744c-3.21-.9203-5.3914-3.8573-5.3159-7.1568V149.941c-.0001-.9936.4595-1.9341 1.2479-2.5515s1.8182-.8469 2.7985-.6216l27.8321 6.4115a10.864 10.864 0 0 0 4.8776 0l27.8401-6.4115c.9794-.2253 2.0105.0029 2.7985.6216s1.2478 1.5579 1.2478 2.5515v38.2456c-.0008 1.4827-1.0165 2.7785-2.47 3.1527l-30.7448 7.8847a4.725 4.725 0 0 1-2.1734.04l-3.087-.8217m-30.1999-45.7855l.027-5.317c.0048-.8964.6193-1.677 1.4979-1.901l30.0222-7.6642c2.0306-.519 4.1678-.4595 6.1666.1686l29.0974 7.7781c1.1022.2936 1.8666 1.2814 1.8666 2.4095v4.1348" fill-rule="nonzero" stroke-width="4.3104"/></svg>